<?xml version="1.0" encoding="UTF-8"?>
<svg xmlns="http://www.w3.org/2000/svg" xmlns:xlink="http://www.w3.org/1999/xlink" width="60pt" height="60pt" viewBox="0 0 60 60" version="1.1">
<g id="surface367">
<path style=" stroke:none;fill-rule:nonzero;fill:rgb(29.411766%,39.215687%,46.666667%);fill-opacity:1;" d="M 7.5 58.125 C 6.464844 58.125 5.625 57.285156 5.625 56.25 L 5.625 7.5 C 5.625 6.464844 6.464844 5.625 7.5 5.625 L 56.25 5.625 C 57.285156 5.625 58.125 6.464844 58.125 7.5 L 58.125 56.25 C 58.125 57.285156 57.285156 58.125 56.25 58.125 Z M 7.5 58.125 "/>
<path style=" stroke:none;fill-rule:nonzero;fill:rgb(21.176471%,25.098041%,30.19608%);fill-opacity:1;" d="M 56.25 7.5 L 56.25 56.25 L 7.5 56.25 L 7.5 7.5 L 56.25 7.5 M 56.25 3.75 L 7.5 3.75 C 5.429688 3.75 3.75 5.429688 3.75 7.5 L 3.75 56.25 C 3.75 58.320312 5.429688 60 7.5 60 L 56.25 60 C 58.320312 60 60 58.320312 60 56.25 L 60 7.5 C 60 5.429688 58.320312 3.75 56.25 3.75 Z M 56.25 3.75 "/>
<path style=" stroke:none;fill-rule:nonzero;fill:rgb(89.803922%,90.980393%,65.490198%);fill-opacity:1;" d="M 11.25 11.25 L 15 11.25 L 15 15 L 11.25 15 Z M 26.25 11.25 L 30 11.25 L 30 15 L 26.25 15 Z M 33.75 11.25 L 37.5 11.25 L 37.5 15 L 33.75 15 Z M 48.75 11.25 L 52.5 11.25 L 52.5 15 L 48.75 15 Z M 48.75 18.75 L 52.5 18.75 L 52.5 22.5 L 48.75 22.5 Z M 48.75 26.25 L 52.5 26.25 L 52.5 30 L 48.75 30 Z M 48.75 37.5 L 52.5 37.5 L 52.5 41.25 L 48.75 41.25 Z M 11.25 26.25 L 15 26.25 L 15 30 L 11.25 30 Z M 11.25 18.75 L 15 18.75 L 15 22.5 L 11.25 22.5 Z M 26.25 30 L 30 30 L 30 33.75 L 26.25 33.75 Z M 33.75 26.25 L 37.5 26.25 L 37.5 30 L 33.75 30 Z M 33.75 37.5 L 37.5 37.5 L 37.5 41.25 L 33.75 41.25 Z M 33.75 37.5 "/>
<path style=" stroke:none;fill-rule:nonzero;fill:rgb(100%,93.333334%,63.921571%);fill-opacity:1;" d="M 33.75 48.75 L 37.5 48.75 L 37.5 52.5 L 33.75 52.5 Z M 33.75 48.75 "/>
<path style=" stroke:none;fill-rule:nonzero;fill:rgb(89.803922%,90.980393%,65.490198%);fill-opacity:1;" d="M 18.75 30 L 22.5 30 L 22.5 33.75 L 18.75 33.75 Z M 11.25 37.5 L 15 37.5 L 15 41.25 L 11.25 41.25 Z M 26.25 18.75 L 30 18.75 L 30 22.5 L 26.25 22.5 Z M 33.75 18.75 L 37.5 18.75 L 37.5 22.5 L 33.75 22.5 Z M 18.75 22.5 L 22.5 22.5 L 22.5 26.25 L 18.75 26.25 Z M 18.75 22.5 "/>
<path style=" stroke:none;fill-rule:nonzero;fill:rgb(100%,93.333334%,63.921571%);fill-opacity:1;" d="M 26.25 41.25 L 30 41.25 L 30 45 L 26.25 45 Z M 11.25 45 L 15 45 L 15 48.75 L 11.25 48.75 Z M 18.75 37.5 L 22.5 37.5 L 22.5 41.25 L 18.75 41.25 Z M 18.75 37.5 "/>
<path style=" stroke:none;fill-rule:nonzero;fill:rgb(89.803922%,90.980393%,65.490198%);fill-opacity:1;" d="M 18.75 11.25 L 22.5 11.25 L 22.5 18.75 L 18.75 18.75 Z M 41.25 11.25 L 45 11.25 L 45 18.75 L 41.25 18.75 Z M 41.25 22.5 L 45 22.5 L 45 26.25 L 41.25 26.25 Z M 41.25 22.5 "/>
<path style=" stroke:none;fill-rule:nonzero;fill:rgb(100%,93.333334%,63.921571%);fill-opacity:1;" d="M 41.25 33.75 L 45 33.75 L 45 37.5 L 41.25 37.5 Z M 48.75 45 L 52.5 45 L 52.5 48.75 L 48.75 48.75 Z M 48.75 45 "/>
</g>
</svg>
