<?xml version="1.0" encoding="UTF-8"?>
<svg xmlns="http://www.w3.org/2000/svg" xmlns:xlink="http://www.w3.org/1999/xlink" width="60pt" height="60pt" viewBox="0 0 60 60" version="1.1">
<g id="surface124">
<path style=" stroke:none;fill-rule:nonzero;fill:rgb(54.509807%,71.764708%,94.117647%);fill-opacity:1;" d="M 30 1.875 C 14.46875 1.875 1.875 14.46875 1.875 30 C 1.875 45.53125 14.46875 58.125 30 58.125 C 45.53125 58.125 58.125 45.53125 58.125 30 C 58.125 14.46875 45.53125 1.875 30 1.875 Z M 30 1.875 "/>
<path style=" stroke:none;fill-rule:nonzero;fill:rgb(30.588236%,47.843137%,70.980394%);fill-opacity:1;" d="M 30 3.75 C 44.625 3.75 56.25 15.375 56.25 30 C 56.25 44.625 44.625 56.25 30 56.25 C 15.375 56.25 3.75 44.625 3.75 30 C 3.75 15.375 15.375 3.75 30 3.75 M 30 0 C 13.5 0 0 13.5 0 30 C 0 46.5 13.5 60 30 60 C 46.5 60 60 46.5 60 30 C 60 13.5 46.5 0 30 0 Z M 30 0 "/>
<path style=" stroke:none;fill-rule:nonzero;fill:rgb(100%,100%,100%);fill-opacity:1;" d="M 29.183594 28.464844 L 41.953125 19.898438 L 44.042969 23.015625 L 31.273438 31.578125 Z M 29.183594 28.464844 "/>
<path style=" stroke:none;fill-rule:nonzero;fill:rgb(54.509807%,71.764708%,94.117647%);fill-opacity:1;" d="M 30 26.25 C 27.929688 26.25 26.25 27.929688 26.25 30 C 26.25 32.070312 27.929688 33.75 30 33.75 C 32.070312 33.75 33.75 32.070312 33.75 30 C 33.75 27.929688 32.070312 26.25 30 26.25 Z M 30 26.25 "/>
<path style=" stroke:none;fill-rule:nonzero;fill:rgb(100%,100%,100%);fill-opacity:1;" d="M 30 28.125 C 31.125 28.125 31.875 28.875 31.875 30 C 31.875 31.125 31.125 31.875 30 31.875 C 28.875 31.875 28.125 31.125 28.125 30 C 28.125 28.875 28.875 28.125 30 28.125 M 30 24.375 C 27 24.375 24.375 27 24.375 30 C 24.375 33 27 35.625 30 35.625 C 33 35.625 35.625 33 35.625 30 C 35.625 27 33 24.375 30 24.375 Z M 30 24.375 "/>
<path style=" stroke:none;fill-rule:nonzero;fill:rgb(100%,100%,100%);fill-opacity:1;" d="M 23.589844 7.929688 L 27.269531 7.199219 L 28.144531 11.613281 L 24.46875 12.34375 Z M 23.589844 7.929688 "/>
<path style=" stroke:none;fill-rule:nonzero;fill:rgb(78.039217%,26.274511%,26.274511%);fill-opacity:1;" d="M 47.65625 24.46875 L 52.066406 23.585938 L 52.800781 27.265625 L 48.386719 28.144531 Z M 47.65625 24.46875 "/>
<path style=" stroke:none;fill-rule:nonzero;fill:rgb(100%,100%,100%);fill-opacity:1;" d="M 7.199219 32.730469 L 11.613281 31.855469 L 12.34375 35.535156 L 7.929688 36.410156 Z M 7.199219 32.730469 "/>
<path style=" stroke:none;fill-rule:nonzero;fill:rgb(100%,100%,100%);fill-opacity:1;" d="M 38.632812 13.484375 L 41.140625 9.746094 L 44.253906 11.835938 L 41.75 15.570312 Z M 38.632812 13.484375 "/>
<path style=" stroke:none;fill-rule:nonzero;fill:rgb(78.039217%,26.274511%,26.274511%);fill-opacity:1;" d="M 44.433594 41.75 L 46.519531 38.632812 L 50.257812 41.136719 L 48.171875 44.253906 Z M 44.433594 41.75 "/>
<path style=" stroke:none;fill-rule:nonzero;fill:rgb(100%,100%,100%);fill-opacity:1;" d="M 10.054688 19.074219 L 12.140625 15.957031 L 15.878906 18.457031 L 13.792969 21.574219 Z M 10.054688 19.074219 "/>
<path style=" stroke:none;fill-rule:nonzero;fill:rgb(100%,100%,100%);fill-opacity:1;" d="M 15.527344 12.042969 L 18.644531 9.957031 L 21.148438 13.699219 L 18.03125 15.78125 Z M 15.527344 12.042969 "/>
<path style=" stroke:none;fill-rule:nonzero;fill:rgb(100%,100%,100%);fill-opacity:1;" d="M 44.214844 18.03125 L 47.953125 15.527344 L 50.042969 18.640625 L 46.304688 21.148438 Z M 44.214844 18.03125 "/>
<path style=" stroke:none;fill-rule:nonzero;fill:rgb(100%,100%,100%);fill-opacity:1;" d="M 9.960938 41.355469 L 13.699219 38.847656 L 15.789062 41.964844 L 12.050781 44.46875 Z M 9.960938 41.355469 "/>
<path style=" stroke:none;fill-rule:nonzero;fill:rgb(100%,100%,100%);fill-opacity:1;" d="M 31.714844 11.523438 L 32.589844 7.109375 L 36.269531 7.835938 L 35.394531 12.25 Z M 31.714844 11.523438 "/>
<path style=" stroke:none;fill-rule:nonzero;fill:rgb(78.039217%,26.274511%,26.274511%);fill-opacity:1;" d="M 52.125 36.375 L 47.625 35.25 L 48.375 31.875 L 52.875 32.625 Z M 52.125 36.375 "/>
<path style=" stroke:none;fill-rule:nonzero;fill:rgb(100%,100%,100%);fill-opacity:1;" d="M 7.109375 27.40625 L 7.839844 23.726562 L 12.253906 24.601562 L 11.523438 28.28125 Z M 7.109375 27.40625 "/>
<path style=" stroke:none;fill-rule:nonzero;fill:rgb(100%,100%,100%);fill-opacity:1;" d="M 22.5 45 L 37.5 45 L 37.5 48.75 L 22.5 48.75 Z M 22.5 45 "/>
<path style=" stroke:none;fill-rule:nonzero;fill:rgb(30.588236%,47.843137%,70.980394%);fill-opacity:1;" d="M 37.5 45 L 22.5 45 L 22.5 48.75 L 37.5 48.75 Z M 37.5 45 "/>
</g>
</svg>
