<?xml version="1.0" encoding="UTF-8"?>
<svg xmlns="http://www.w3.org/2000/svg" xmlns:xlink="http://www.w3.org/1999/xlink" width="60pt" height="60pt" viewBox="0 0 60 60" version="1.1">
<g id="surface272">
<path style=" stroke:none;fill-rule:nonzero;fill:rgb(72.941178%,87.843138%,74.117649%);fill-opacity:1;" d="M 24.375 31.875 L 35.625 31.875 L 35.625 54.375 L 24.375 54.375 Z M 24.375 31.875 "/>
<path style=" stroke:none;fill-rule:nonzero;fill:rgb(36.862746%,61.176473%,46.27451%);fill-opacity:1;" d="M 33.75 33.75 L 33.75 52.5 L 26.25 52.5 L 26.25 33.75 L 33.75 33.75 M 37.5 30 L 22.5 30 L 22.5 56.25 L 37.5 56.25 Z M 37.5 30 "/>
<path style=" stroke:none;fill-rule:nonzero;fill:rgb(72.941178%,87.843138%,74.117649%);fill-opacity:1;" d="M 43.125 5.625 L 54.375 5.625 L 54.375 54.375 L 43.125 54.375 Z M 43.125 5.625 "/>
<path style=" stroke:none;fill-rule:nonzero;fill:rgb(36.862746%,61.176473%,46.27451%);fill-opacity:1;" d="M 52.5 7.5 L 52.5 52.5 L 45 52.5 L 45 7.5 L 52.5 7.5 M 56.25 3.75 L 41.25 3.75 L 41.25 56.25 L 56.25 56.25 Z M 56.25 3.75 "/>
<path style=" stroke:none;fill-rule:nonzero;fill:rgb(72.941178%,87.843138%,74.117649%);fill-opacity:1;" d="M 5.625 16.875 L 16.875 16.875 L 16.875 54.375 L 5.625 54.375 Z M 5.625 16.875 "/>
<path style=" stroke:none;fill-rule:nonzero;fill:rgb(36.862746%,61.176473%,46.27451%);fill-opacity:1;" d="M 15 18.75 L 15 52.5 L 7.5 52.5 L 7.5 18.75 L 15 18.75 M 18.75 15 L 3.75 15 L 3.75 56.25 L 18.75 56.25 Z M 18.75 15 "/>
</g>
</svg>
