<?xml version="1.0" encoding="UTF-8"?>
<svg xmlns="http://www.w3.org/2000/svg" xmlns:xlink="http://www.w3.org/1999/xlink" width="60pt" height="60pt" viewBox="0 0 60 60" version="1.1">
<g id="surface312">
<path style=" stroke:none;fill-rule:nonzero;fill:rgb(76.078433%,90.980393%,100%);fill-opacity:1;" d="M 4.617188 58.125 C 3.105469 58.125 1.875 56.894531 1.875 55.386719 L 1.875 4.613281 C 1.875 3.105469 3.105469 1.875 4.617188 1.875 L 55.382812 1.875 C 56.894531 1.875 58.125 3.105469 58.125 4.613281 L 58.125 55.386719 C 58.125 56.894531 56.894531 58.125 55.382812 58.125 Z M 4.617188 58.125 "/>
<path style=" stroke:none;fill-rule:nonzero;fill:rgb(45.490196%,58.823532%,76.862746%);fill-opacity:1;" d="M 55.382812 3.75 C 55.859375 3.75 56.25 4.140625 56.25 4.617188 L 56.25 55.382812 C 56.25 55.859375 55.859375 56.25 55.382812 56.25 L 4.617188 56.25 C 4.140625 56.25 3.75 55.859375 3.75 55.382812 L 3.75 4.617188 C 3.75 4.140625 4.140625 3.75 4.617188 3.75 L 55.382812 3.75 M 55.382812 0 L 4.617188 0 C 2.066406 0 0 2.066406 0 4.617188 L 0 55.382812 C 0 57.933594 2.066406 60 4.617188 60 L 55.382812 60 C 57.933594 60 60 57.933594 60 55.382812 L 60 4.617188 C 60 2.066406 57.933594 0 55.382812 0 Z M 55.382812 0 "/>
<path style=" stroke:none;fill-rule:nonzero;fill:rgb(54.509807%,71.764708%,94.117647%);fill-opacity:1;" d="M 13.125 16.875 L 46.875 16.875 L 46.875 43.125 L 13.125 43.125 Z M 13.125 16.875 "/>
<path style=" stroke:none;fill-rule:nonzero;fill:rgb(30.588236%,47.843137%,70.980394%);fill-opacity:1;" d="M 45 18.75 L 45 41.25 L 15 41.25 L 15 18.75 L 45 18.75 M 48.75 15 L 11.25 15 L 11.25 45 L 48.75 45 Z M 48.75 15 "/>
<path style=" stroke:none;fill-rule:nonzero;fill:rgb(76.078433%,90.980393%,100%);fill-opacity:1;" d="M 15 30 L 45 30 L 45 41.25 L 15 41.25 Z M 15 30 "/>
<path style=" stroke:none;fill-rule:nonzero;fill:rgb(54.509807%,71.764708%,94.117647%);fill-opacity:1;" d="M 11.25 26.25 L 48.75 26.25 L 48.75 30 L 11.25 30 Z M 11.25 26.25 "/>
<path style=" stroke:none;fill-rule:nonzero;fill:rgb(30.588236%,47.843137%,70.980394%);fill-opacity:1;" d="M 48.75 26.25 L 11.25 26.25 L 11.25 30 L 48.75 30 Z M 48.75 26.25 "/>
<path style=" stroke:none;fill-rule:nonzero;fill:rgb(54.509807%,71.764708%,94.117647%);fill-opacity:1;" d="M 15 33.75 L 45 33.75 L 45 37.5 L 15 37.5 Z M 15 33.75 "/>
<path style=" stroke:none;fill-rule:nonzero;fill:rgb(30.588236%,47.843137%,70.980394%);fill-opacity:1;" d="M 26.25 15 L 22.5 15 L 22.5 45 L 26.25 45 Z M 26.25 15 "/>
</g>
</svg>
