<?xml version="1.0" encoding="UTF-8"?>
<svg xmlns="http://www.w3.org/2000/svg" xmlns:xlink="http://www.w3.org/1999/xlink" width="60pt" height="60pt" viewBox="0 0 60 60" version="1.1">
<g id="surface287">
<path style=" stroke:none;fill-rule:nonzero;fill:rgb(54.509807%,71.764708%,94.117647%);fill-opacity:1;" d="M 3.75 50.625 C 2.71875 50.625 1.875 49.785156 1.875 48.75 L 1.875 11.25 C 1.875 10.214844 2.71875 9.375 3.75 9.375 L 56.25 9.375 C 57.28125 9.375 58.125 10.214844 58.125 11.25 L 58.125 48.75 C 58.125 49.785156 57.28125 50.625 56.25 50.625 Z M 3.75 50.625 "/>
<path style=" stroke:none;fill-rule:nonzero;fill:rgb(45.490196%,58.823532%,76.862746%);fill-opacity:1;" d="M 56.25 11.25 L 56.25 48.75 L 3.75 48.75 L 3.75 11.25 L 56.25 11.25 M 56.25 7.5 L 3.75 7.5 C 1.679688 7.5 0 9.179688 0 11.25 L 0 48.75 C 0 50.820312 1.679688 52.5 3.75 52.5 L 56.25 52.5 C 58.320312 52.5 60 50.820312 60 48.75 L 60 11.25 C 60 9.179688 58.320312 7.5 56.25 7.5 Z M 56.25 7.5 "/>
<path style=" stroke:none;fill-rule:nonzero;fill:rgb(100%,100%,100%);fill-opacity:1;" d="M 22.5 15 L 15 15 L 11.25 18.75 L 11.25 41.25 L 15 45 L 22.5 45 L 26.25 41.25 L 26.25 18.75 Z M 22.5 41.25 L 15 41.25 L 15 18.75 L 22.5 18.75 Z M 45 15 L 37.5 15 L 33.75 18.75 L 33.75 41.25 L 37.5 45 L 45 45 L 48.75 41.25 L 48.75 18.75 Z M 45 41.25 L 37.5 41.25 L 37.5 18.75 L 45 18.75 Z M 45 41.25 "/>
</g>
</svg>
