<?xml version="1.0" encoding="UTF-8"?>
<svg xmlns="http://www.w3.org/2000/svg" xmlns:xlink="http://www.w3.org/1999/xlink" width="60pt" height="60pt" viewBox="0 0 60 60" version="1.1">
<g id="surface453">
<path style=" stroke:none;fill-rule:nonzero;fill:rgb(72.941178%,60.784316%,28.235295%);fill-opacity:1;" d="M 52.835938 37.269531 L 55.964844 39.335938 C 58.515625 34.921875 60 29.824219 60 24.375 C 60 15.625 56.210938 7.765625 50.21875 2.28125 L 47.570312 4.929688 C 52.886719 9.738281 56.25 16.660156 56.25 24.375 C 56.25 29.0625 55 33.457031 52.835938 37.269531 Z M 52.835938 37.269531 "/>
<path style=" stroke:none;fill-rule:nonzero;fill:rgb(72.941178%,60.784316%,28.235295%);fill-opacity:1;" d="M 7.164062 37.269531 C 5 33.457031 3.75 29.0625 3.75 24.375 C 3.75 16.660156 7.113281 9.738281 12.429688 4.929688 L 9.78125 2.28125 C 3.789062 7.765625 0 15.625 0 24.375 C 0 29.824219 1.484375 34.921875 4.035156 39.332031 Z M 7.164062 37.269531 "/>
<path style=" stroke:none;fill-rule:nonzero;fill:rgb(90.980393%,83.137256%,48.235294%);fill-opacity:1;" d="M 30 46.875 C 26.894531 46.875 24.375 49.394531 24.375 52.5 C 24.375 55.605469 26.894531 58.125 30 58.125 C 33.105469 58.125 35.625 55.605469 35.625 52.5 C 35.625 49.394531 33.105469 46.875 30 46.875 Z M 30 46.875 "/>
<path style=" stroke:none;fill-rule:nonzero;fill:rgb(72.941178%,60.784316%,28.235295%);fill-opacity:1;" d="M 30 48.75 C 32.066406 48.75 33.75 50.433594 33.75 52.5 C 33.75 54.566406 32.066406 56.25 30 56.25 C 27.933594 56.25 26.25 54.566406 26.25 52.5 C 26.25 50.433594 27.933594 48.75 30 48.75 M 30 45 C 25.855469 45 22.5 48.355469 22.5 52.5 C 22.5 56.644531 25.855469 60 30 60 C 34.144531 60 37.5 56.644531 37.5 52.5 C 37.5 48.355469 34.144531 45 30 45 Z M 30 45 "/>
<path style=" stroke:none;fill-rule:nonzero;fill:rgb(100%,93.333334%,63.921571%);fill-opacity:1;" d="M 5.625 50.625 L 5.625 46.6875 C 9.898438 45.816406 13.125 42.03125 13.125 37.5 L 13.125 22.5 C 13.125 14.460938 18.847656 7.503906 26.730469 5.953125 L 28.246094 5.65625 L 28.246094 3.691406 C 28.246094 2.6875 29.0625 1.875 30.058594 1.875 C 31.058594 1.875 31.875 2.6875 31.875 3.691406 L 31.875 5.660156 L 33.375 5.964844 C 41.199219 7.550781 46.875 14.507812 46.875 22.5 L 46.875 37.5 C 46.875 42.03125 50.101562 45.8125 54.375 46.6875 L 54.375 50.625 Z M 5.625 50.625 "/>
<path style=" stroke:none;fill-rule:nonzero;fill:rgb(72.941178%,60.784316%,28.235295%);fill-opacity:1;" d="M 30.078125 7.207031 L 33.003906 7.800781 C 39.957031 9.214844 45 15.394531 45 22.5 L 45 37.5 C 45 42.390625 48.136719 46.558594 52.5 48.109375 L 52.5 48.75 L 7.5 48.75 L 7.5 48.109375 C 11.863281 46.558594 15 42.390625 15 37.5 L 15 22.5 C 15 15.355469 20.085938 9.171875 27.09375 7.796875 L 30.078125 7.207031 M 30.058594 0 C 28.023438 0 26.371094 1.648438 26.371094 3.691406 L 26.371094 4.117188 C 17.757812 5.808594 11.25 13.386719 11.25 22.5 L 11.25 37.5 C 11.25 41.644531 7.894531 45 3.75 45 L 3.75 52.5 L 56.25 52.5 L 56.25 45 C 52.105469 45 48.75 41.644531 48.75 37.5 L 48.75 22.5 C 48.75 13.429688 42.308594 5.863281 33.75 4.128906 L 33.75 3.691406 C 33.75 1.648438 32.101562 0 30.058594 0 Z M 30.058594 0 "/>
</g>
</svg>
